Coordinates
version=1
nRows=54
nColumns=12
inDegrees=yes

Units are S.I. units (second, meters, Newtons, ...)
Angles are in degrees

endheader
time	SC_y	SC_z	SC_x	AC_y	AC_z	AC_x	GH_y	GH_z	GH_yy	EL_x	PS_y
       0.0               -46.0           7.23          58.31          30.17         -4.476         -14.26          100.0          62.09         -143.1          68.92          158.6
  0.009973               -46.0          7.232          58.31          30.17         -4.476         -14.26          100.0          62.08         -143.1          68.92          158.5
   0.01995               -46.0          7.235          58.31          30.18         -4.477         -14.26          100.0          62.08         -143.1          68.92          158.5
   0.02992               -46.0          7.238          58.32          30.18         -4.477         -14.25          100.0          62.07         -143.1          68.92          158.5
   0.03989               -46.0          7.241          58.32          30.18         -4.477         -14.25          100.0          62.07         -143.1          68.93          158.5
   0.04987               -46.0          7.245          58.33          30.18         -4.477         -14.25          100.0          62.06         -143.1          68.93          158.4
   0.05984              -46.01          7.249          58.33          30.19         -4.477         -14.25          100.1          62.06         -143.1          68.93          158.4
   0.06981              -46.01          7.253          58.34          30.19         -4.477         -14.25          100.1          62.05         -143.1          68.93          158.4
   0.07979              -46.01          7.257          58.34          30.19         -4.478         -14.25          100.1          62.05         -143.1          68.93          158.3
   0.08976              -46.01          7.262          58.35           30.2         -4.478         -14.24          100.1          62.04         -143.1          68.94          158.3
   0.09973              -46.01          7.266          58.35           30.2         -4.478         -14.24          100.1          62.03         -143.1          68.94          158.3
    0.1097              -46.02          7.272          58.36           30.2         -4.478         -14.24          100.1          62.02         -143.2          68.94          158.2
    0.1197              -46.02          7.277          58.37          30.21         -4.479         -14.24          100.1          62.01         -143.2          68.94          158.2
    0.1297              -46.02          7.284          58.38          30.21         -4.479         -14.23          100.1          62.01         -143.2          68.95          158.1
    0.1396              -46.02           7.29          58.39          30.22         -4.479         -14.23          100.1           62.0         -143.2          68.95          158.1
    0.1496              -46.03          7.297           58.4          30.22          -4.48         -14.23          100.1          61.98         -143.2          68.95          158.0
    0.1596              -46.03          7.305          58.41          30.23          -4.48         -14.22          100.2          61.97         -143.2          68.95          158.0
    0.1695              -46.03          7.314          58.42          30.24         -4.481         -14.22          100.2          61.96         -143.2          68.96          157.9
    0.1795              -46.04          7.323          58.43          30.24         -4.481         -14.22          100.2          61.95         -143.2          68.96          157.8
    0.1895              -46.04          7.333          58.44          30.25         -4.482         -14.21          100.2          61.93         -143.2          68.97          157.7
    0.1995              -46.05          7.345          58.46          30.26         -4.482         -14.21          100.2          61.91         -143.2          68.97          157.7
    0.2094              -46.05          7.357          58.48          30.27         -4.483          -14.2          100.3          61.89         -143.2          68.98          157.6
    0.2194              -46.06          7.371          58.49          30.28         -4.484         -14.19          100.3          61.87         -143.2          68.98          157.5
    0.2294              -46.07          7.386          58.51          30.29         -4.485         -14.19          100.3          61.85         -143.2          68.99          157.3
    0.2394              -46.07          7.403          58.54           30.3         -4.485         -14.18          100.3          61.83         -143.2           69.0          157.2
    0.2493              -46.08          7.421          58.56          30.32         -4.486         -14.17          100.4           61.8         -143.2          69.01          157.1
    0.2593              -46.09          7.442          58.59          30.33         -4.488         -14.16          100.4          61.77         -143.2          69.02          156.9
    0.2693               -46.1          7.466          58.62          30.35         -4.489         -14.15          100.5          61.73         -143.2          69.03          156.7
    0.2793              -46.11          7.493          58.66          30.37          -4.49         -14.14          100.5          61.69         -143.2          69.04          156.5
    0.2892              -46.12          7.523           58.7           30.4         -4.492         -14.13          100.6          61.64         -143.2          69.05          156.3
    0.2992              -46.14          7.558          58.74          30.42         -4.494         -14.11          100.6          61.59         -143.2          69.07          156.0
    0.3092              -46.16          7.597           58.8          30.45         -4.496         -14.09          100.7          61.53         -143.2          69.09          155.7
    0.3191              -46.18          7.643          58.86          30.49         -4.498         -14.07          100.8          61.46         -143.2          69.11          155.4
    0.3291               -46.2          7.697          58.93          30.53         -4.501         -14.05          100.9          61.38         -143.2          69.13          155.0
    0.3391              -46.23          7.759          59.01          30.58         -4.505         -14.02          101.0          61.29         -143.2          69.16          154.5
    0.3491              -46.26          7.833          59.11          30.63         -4.509         -13.99          101.2          61.18         -143.3          69.19          153.9
     0.359               -46.3           7.92          59.23           30.7         -4.513         -13.95          101.3          61.04         -143.3          69.23          153.2
     0.369              -46.34          8.025          59.37          30.78         -4.519          -13.9          101.5          60.89         -143.3          69.28          152.4
     0.379               -46.4          8.151          59.54          30.87         -4.526         -13.85          101.8           60.7         -143.3          69.33          151.4
     0.389              -46.46          8.306          59.74          30.99         -4.534         -13.78          102.1          60.46         -143.4           69.4          150.3
    0.3989              -46.55          8.497           60.0          31.14         -4.544         -13.69          102.4          60.17         -143.4          69.49          148.8
    0.4089              -46.65          8.735          60.31          31.32         -4.557         -13.58          102.9          59.81         -143.4          69.59          146.9
    0.4189              -46.78          9.036          60.71          31.55         -4.573         -13.45          103.4          59.36         -143.5          69.73          144.6
    0.4289              -46.95          9.417          61.22          31.84         -4.593         -13.28          104.2          58.78         -143.6           69.9          141.7
    0.4388              -47.16          9.905          61.88          32.21          -4.62         -13.06          105.1          58.05         -143.7          70.12          137.9
    0.4488              -47.43          10.53          62.71          32.69         -4.653         -12.78          106.3           57.1         -143.8           70.4          133.1
    0.4588              -47.78          11.33          63.78           33.3         -4.696         -12.42          107.8          55.89         -144.0          70.75          126.9
    0.4687              -48.21          12.34          65.12          34.06          -4.75         -11.97          109.7          54.37         -144.2           71.2          119.2
    0.4787              -48.74          13.57          66.76           35.0         -4.816         -11.42          112.1          52.52         -144.4          71.75          109.7
    0.4887              -49.36          14.99          68.65          36.08         -4.892         -10.79          114.8          50.38         -144.7          72.38          98.75
    0.4987              -50.03          16.53          70.71          37.25         -4.975          -10.1          117.7          48.05         -145.0          73.07          86.88
    0.5086               -50.7          18.07          72.76          38.43         -5.057         -9.412          120.6          45.73         -145.3          73.76          75.02
    0.5186              -51.31          19.49          74.66          39.51         -5.133         -8.776          123.3          43.59         -145.6          74.39          64.06
    0.5286              -51.84          20.71          76.29          40.44         -5.199         -8.228          125.6          41.73         -145.9          74.94           54.6
